# xmcd CD database file
# Copyright (C) 1993-1997  Ti Kan
#
# Track frame offsets:
#	183
#	16733
#	40290
#	56978
#	74225
#	92745
#	113508
#	130313
#	144803
#	157973
#	170675
#	188003
#	201920
#	229938
#
# Disc length: 3175 seconds
#
# Revision: 1
# Processed by: cddbd v1.5.2PL0 Copyright (c) Steve Scherf et al.
# Submitted via: xmcd 2.2 PL0
#
DISCID=c30c650e
DTITLE=The Wailin' Walker Band - The Devil Made Me Play It
DYEAR=1900
DGENRE=
TTITLE0=24 Hours
TTITLE1=Poison Ivy
TTITLE2=My Heart Beats Like A Hammer
TTITLE3=Pretty Girls
TTITLE4=Let The Good Times Roll
TTITLE5=Money Honey
TTITLE6=Wailin's Walk
TTITLE7=Be Careful
TTITLE8=Nitemover
TTITLE9=Ring, Ring, Ring
TTITLE10=Franky And Johnny
TTITLE11=Shit, Shower And Shave
TTITLE12=Red Headed Woman
TTITLE13=The Devil Made Me Play It
EXTD=
EXTT0=
EXTT1=
EXTT2=
EXTT3=
EXTT4=
EXTT5=
EXTT6=
EXTT7=
EXTT8=
EXTT9=
EXTT10=
EXTT11=
EXTT12=
EXTT13=
PLAYORDER=
